G04 #@! TF.FileFunction,Legend,Top*
%FSLAX46Y46*%
G04 Gerber Fmt 4.6, Leading zero omitted, Abs format (unit mm)*
G04 Created by KiCad (PCBNEW 4.0.5+dfsg1-4) date Sun Jul  1 16:29:06 2018*
%MOMM*%
%LPD*%
G01*
G04 APERTURE LIST*
%ADD10C,0.100000*%
%ADD11C,0.200000*%
%ADD12C,0.300000*%
%ADD13C,0.150000*%
G04 APERTURE END LIST*
D10*
D11*
X97000000Y-47000000D02*
G75*
G03X98000000Y-46000000I0J1000000D01*
G01*
X96000000Y-46000000D02*
G75*
G03X97000000Y-47000000I1000000J0D01*
G01*
D12*
X77892857Y-60642857D02*
X77892857Y-60142857D01*
X78678571Y-59928571D02*
X78678571Y-60642857D01*
X77178571Y-60642857D01*
X77178571Y-59928571D01*
X78535714Y-58428571D02*
X78607143Y-58500000D01*
X78678571Y-58714286D01*
X78678571Y-58857143D01*
X78607143Y-59071428D01*
X78464286Y-59214286D01*
X78321429Y-59285714D01*
X78035714Y-59357143D01*
X77821429Y-59357143D01*
X77535714Y-59285714D01*
X77392857Y-59214286D01*
X77250000Y-59071428D01*
X77178571Y-58857143D01*
X77178571Y-58714286D01*
X77250000Y-58500000D01*
X77321429Y-58428571D01*
X78678571Y-57785714D02*
X77178571Y-57785714D01*
X77892857Y-57785714D02*
X77892857Y-56928571D01*
X78678571Y-56928571D02*
X77178571Y-56928571D01*
X77178571Y-55928571D02*
X77178571Y-55642857D01*
X77250000Y-55499999D01*
X77392857Y-55357142D01*
X77678571Y-55285714D01*
X78178571Y-55285714D01*
X78464286Y-55357142D01*
X78607143Y-55499999D01*
X78678571Y-55642857D01*
X78678571Y-55928571D01*
X78607143Y-56071428D01*
X78464286Y-56214285D01*
X78178571Y-56285714D01*
X77678571Y-56285714D01*
X77392857Y-56214285D01*
X77250000Y-56071428D01*
X77178571Y-55928571D01*
X74178571Y-60285714D02*
X74178571Y-59428571D01*
X75678571Y-59857142D02*
X74178571Y-59857142D01*
X75678571Y-58071428D02*
X74964286Y-58571428D01*
X75678571Y-58928571D02*
X74178571Y-58928571D01*
X74178571Y-58357143D01*
X74250000Y-58214285D01*
X74321429Y-58142857D01*
X74464286Y-58071428D01*
X74678571Y-58071428D01*
X74821429Y-58142857D01*
X74892857Y-58214285D01*
X74964286Y-58357143D01*
X74964286Y-58928571D01*
X75678571Y-57428571D02*
X74178571Y-57428571D01*
X74250000Y-55928571D02*
X74178571Y-56071428D01*
X74178571Y-56285714D01*
X74250000Y-56499999D01*
X74392857Y-56642857D01*
X74535714Y-56714285D01*
X74821429Y-56785714D01*
X75035714Y-56785714D01*
X75321429Y-56714285D01*
X75464286Y-56642857D01*
X75607143Y-56499999D01*
X75678571Y-56285714D01*
X75678571Y-56142857D01*
X75607143Y-55928571D01*
X75535714Y-55857142D01*
X75035714Y-55857142D01*
X75035714Y-56142857D01*
X83857143Y-62250000D02*
X83714286Y-62178571D01*
X83500000Y-62178571D01*
X83285715Y-62250000D01*
X83142857Y-62392857D01*
X83071429Y-62535714D01*
X83000000Y-62821429D01*
X83000000Y-63035714D01*
X83071429Y-63321429D01*
X83142857Y-63464286D01*
X83285715Y-63607143D01*
X83500000Y-63678571D01*
X83642857Y-63678571D01*
X83857143Y-63607143D01*
X83928572Y-63535714D01*
X83928572Y-63035714D01*
X83642857Y-63035714D01*
X84571429Y-63678571D02*
X84571429Y-62178571D01*
X85428572Y-63678571D01*
X85428572Y-62178571D01*
X86142858Y-63678571D02*
X86142858Y-62178571D01*
X86500001Y-62178571D01*
X86714286Y-62250000D01*
X86857144Y-62392857D01*
X86928572Y-62535714D01*
X87000001Y-62821429D01*
X87000001Y-63035714D01*
X86928572Y-63321429D01*
X86857144Y-63464286D01*
X86714286Y-63607143D01*
X86500001Y-63678571D01*
X86142858Y-63678571D01*
X66071429Y-63107143D02*
X67214286Y-63107143D01*
X66642857Y-63678571D02*
X66642857Y-62535714D01*
X68642858Y-62178571D02*
X67928572Y-62178571D01*
X67857143Y-62892857D01*
X67928572Y-62821429D01*
X68071429Y-62750000D01*
X68428572Y-62750000D01*
X68571429Y-62821429D01*
X68642858Y-62892857D01*
X68714286Y-63035714D01*
X68714286Y-63392857D01*
X68642858Y-63535714D01*
X68571429Y-63607143D01*
X68428572Y-63678571D01*
X68071429Y-63678571D01*
X67928572Y-63607143D01*
X67857143Y-63535714D01*
X69142857Y-62178571D02*
X69642857Y-63678571D01*
X70142857Y-62178571D01*
X65857143Y-25250000D02*
X65714286Y-25178571D01*
X65500000Y-25178571D01*
X65285715Y-25250000D01*
X65142857Y-25392857D01*
X65071429Y-25535714D01*
X65000000Y-25821429D01*
X65000000Y-26035714D01*
X65071429Y-26321429D01*
X65142857Y-26464286D01*
X65285715Y-26607143D01*
X65500000Y-26678571D01*
X65642857Y-26678571D01*
X65857143Y-26607143D01*
X65928572Y-26535714D01*
X65928572Y-26035714D01*
X65642857Y-26035714D01*
X66571429Y-26678571D02*
X66571429Y-25178571D01*
X67428572Y-26678571D01*
X67428572Y-25178571D01*
X68142858Y-26678571D02*
X68142858Y-25178571D01*
X68500001Y-25178571D01*
X68714286Y-25250000D01*
X68857144Y-25392857D01*
X68928572Y-25535714D01*
X69000001Y-25821429D01*
X69000001Y-26035714D01*
X68928572Y-26321429D01*
X68857144Y-26464286D01*
X68714286Y-26607143D01*
X68500001Y-26678571D01*
X68142858Y-26678571D01*
X84071429Y-26107143D02*
X85214286Y-26107143D01*
X84642857Y-26678571D02*
X84642857Y-25535714D01*
X86642858Y-25178571D02*
X85928572Y-25178571D01*
X85857143Y-25892857D01*
X85928572Y-25821429D01*
X86071429Y-25750000D01*
X86428572Y-25750000D01*
X86571429Y-25821429D01*
X86642858Y-25892857D01*
X86714286Y-26035714D01*
X86714286Y-26392857D01*
X86642858Y-26535714D01*
X86571429Y-26607143D01*
X86428572Y-26678571D01*
X86071429Y-26678571D01*
X85928572Y-26607143D01*
X85857143Y-26535714D01*
X87142857Y-25178571D02*
X87642857Y-26678571D01*
X88142857Y-25178571D01*
X74464286Y-29678571D02*
X73964286Y-28964286D01*
X73607143Y-29678571D02*
X73607143Y-28178571D01*
X74178571Y-28178571D01*
X74321429Y-28250000D01*
X74392857Y-28321429D01*
X74464286Y-28464286D01*
X74464286Y-28678571D01*
X74392857Y-28821429D01*
X74321429Y-28892857D01*
X74178571Y-28964286D01*
X73607143Y-28964286D01*
X77000000Y-28964286D02*
X77000000Y-29678571D01*
X76500000Y-28178571D02*
X77000000Y-28964286D01*
X77500000Y-28178571D01*
X80392857Y-28250000D02*
X80250000Y-28178571D01*
X80035714Y-28178571D01*
X79821429Y-28250000D01*
X79678571Y-28392857D01*
X79607143Y-28535714D01*
X79535714Y-28821429D01*
X79535714Y-29035714D01*
X79607143Y-29321429D01*
X79678571Y-29464286D01*
X79821429Y-29607143D01*
X80035714Y-29678571D01*
X80178571Y-29678571D01*
X80392857Y-29607143D01*
X80464286Y-29535714D01*
X80464286Y-29035714D01*
X80178571Y-29035714D01*
D13*
X82000000Y-24450000D02*
X83550000Y-24450000D01*
X83550000Y-24450000D02*
X83550000Y-27550000D01*
X83550000Y-27550000D02*
X82000000Y-27550000D01*
X80730000Y-27270000D02*
X70570000Y-27270000D01*
X70570000Y-27270000D02*
X70570000Y-24730000D01*
X70570000Y-24730000D02*
X80730000Y-24730000D01*
X80730000Y-27270000D02*
X80730000Y-24730000D01*
X48570000Y-71700000D02*
X51970000Y-71700000D01*
X48572944Y-71697056D02*
G75*
G02X50270000Y-67600000I1697056J1697056D01*
G01*
X51967056Y-71697056D02*
G75*
G03X50270000Y-67600000I-1697056J1697056D01*
G01*
X48570000Y-54700000D02*
X51970000Y-54700000D01*
X48572944Y-54697056D02*
G75*
G02X50270000Y-50600000I1697056J1697056D01*
G01*
X51967056Y-54697056D02*
G75*
G03X50270000Y-50600000I-1697056J1697056D01*
G01*
X48570000Y-39700000D02*
X51970000Y-39700000D01*
X48572944Y-39697056D02*
G75*
G02X50270000Y-35600000I1697056J1697056D01*
G01*
X51967056Y-39697056D02*
G75*
G03X50270000Y-35600000I-1697056J1697056D01*
G01*
X48540000Y-61730000D02*
X53620000Y-61730000D01*
X53620000Y-61730000D02*
X53620000Y-64270000D01*
X53620000Y-64270000D02*
X48540000Y-64270000D01*
X48540000Y-64270000D02*
X48540000Y-61730000D01*
X48540000Y-63000000D02*
X47270000Y-63000000D01*
X53620000Y-63000000D02*
X54890000Y-63000000D01*
X48540000Y-44730000D02*
X53620000Y-44730000D01*
X53620000Y-44730000D02*
X53620000Y-47270000D01*
X53620000Y-47270000D02*
X48540000Y-47270000D01*
X48540000Y-47270000D02*
X48540000Y-44730000D01*
X48540000Y-46000000D02*
X47270000Y-46000000D01*
X53620000Y-46000000D02*
X54890000Y-46000000D01*
X48540000Y-28730000D02*
X53620000Y-28730000D01*
X53620000Y-28730000D02*
X53620000Y-31270000D01*
X53620000Y-31270000D02*
X48540000Y-31270000D01*
X48540000Y-31270000D02*
X48540000Y-28730000D01*
X48540000Y-30000000D02*
X47270000Y-30000000D01*
X53620000Y-30000000D02*
X54890000Y-30000000D01*
X94540000Y-38730000D02*
X99620000Y-38730000D01*
X99620000Y-38730000D02*
X99620000Y-41270000D01*
X99620000Y-41270000D02*
X94540000Y-41270000D01*
X94540000Y-41270000D02*
X94540000Y-38730000D01*
X94540000Y-40000000D02*
X93270000Y-40000000D01*
X99620000Y-40000000D02*
X100890000Y-40000000D01*
X93135000Y-45705000D02*
X93135000Y-46975000D01*
X100485000Y-45705000D02*
X100485000Y-46975000D01*
X100485000Y-57915000D02*
X100485000Y-56645000D01*
X93135000Y-57915000D02*
X93135000Y-56645000D01*
X93135000Y-45705000D02*
X100485000Y-45705000D01*
X93135000Y-57915000D02*
X100485000Y-57915000D01*
X93135000Y-46975000D02*
X92200000Y-46975000D01*
X71110000Y-52900000D02*
X71110000Y-61730000D01*
X73650000Y-52900000D02*
X71110000Y-52900000D01*
X73650000Y-61730000D02*
X71110000Y-61730000D01*
X76190000Y-61730000D02*
X73650000Y-61730000D01*
X76190000Y-52900000D02*
X73650000Y-52900000D01*
X73650000Y-52900000D02*
X73650000Y-61730000D01*
X76190000Y-52900000D02*
X76190000Y-61730000D01*
X78730000Y-52900000D02*
X76190000Y-52900000D01*
X78730000Y-61730000D02*
X78730000Y-52900000D01*
X78730000Y-61730000D02*
X76190000Y-61730000D01*
X81270000Y-61730000D02*
X78730000Y-61730000D01*
X80000000Y-64400000D02*
X81550000Y-64400000D01*
X81550000Y-64400000D02*
X81550000Y-63000000D01*
X81270000Y-61730000D02*
X81270000Y-52900000D01*
X81270000Y-52900000D02*
X78730000Y-52900000D01*
X78730000Y-52900000D02*
X78730000Y-61730000D01*
X90452381Y-26738095D02*
X89452381Y-26738095D01*
X89452381Y-26357142D01*
X89500000Y-26261904D01*
X89547619Y-26214285D01*
X89642857Y-26166666D01*
X89785714Y-26166666D01*
X89880952Y-26214285D01*
X89928571Y-26261904D01*
X89976190Y-26357142D01*
X89976190Y-26738095D01*
X89547619Y-25785714D02*
X89500000Y-25738095D01*
X89452381Y-25642857D01*
X89452381Y-25404761D01*
X89500000Y-25309523D01*
X89547619Y-25261904D01*
X89642857Y-25214285D01*
X89738095Y-25214285D01*
X89880952Y-25261904D01*
X90452381Y-25833333D01*
X90452381Y-25214285D01*
X48904762Y-66547619D02*
X48809524Y-66500000D01*
X48714286Y-66404762D01*
X48571429Y-66261905D01*
X48476190Y-66214286D01*
X48380952Y-66214286D01*
X48428571Y-66452381D02*
X48333333Y-66404762D01*
X48238095Y-66309524D01*
X48190476Y-66119048D01*
X48190476Y-65785714D01*
X48238095Y-65595238D01*
X48333333Y-65500000D01*
X48428571Y-65452381D01*
X48619048Y-65452381D01*
X48714286Y-65500000D01*
X48809524Y-65595238D01*
X48857143Y-65785714D01*
X48857143Y-66119048D01*
X48809524Y-66309524D01*
X48714286Y-66404762D01*
X48619048Y-66452381D01*
X48428571Y-66452381D01*
X49809524Y-66452381D02*
X49238095Y-66452381D01*
X49523809Y-66452381D02*
X49523809Y-65452381D01*
X49428571Y-65595238D01*
X49333333Y-65690476D01*
X49238095Y-65738095D01*
X48904762Y-49547619D02*
X48809524Y-49500000D01*
X48714286Y-49404762D01*
X48571429Y-49261905D01*
X48476190Y-49214286D01*
X48380952Y-49214286D01*
X48428571Y-49452381D02*
X48333333Y-49404762D01*
X48238095Y-49309524D01*
X48190476Y-49119048D01*
X48190476Y-48785714D01*
X48238095Y-48595238D01*
X48333333Y-48500000D01*
X48428571Y-48452381D01*
X48619048Y-48452381D01*
X48714286Y-48500000D01*
X48809524Y-48595238D01*
X48857143Y-48785714D01*
X48857143Y-49119048D01*
X48809524Y-49309524D01*
X48714286Y-49404762D01*
X48619048Y-49452381D01*
X48428571Y-49452381D01*
X49238095Y-48547619D02*
X49285714Y-48500000D01*
X49380952Y-48452381D01*
X49619048Y-48452381D01*
X49714286Y-48500000D01*
X49761905Y-48547619D01*
X49809524Y-48642857D01*
X49809524Y-48738095D01*
X49761905Y-48880952D01*
X49190476Y-49452381D01*
X49809524Y-49452381D01*
X48904762Y-34547619D02*
X48809524Y-34500000D01*
X48714286Y-34404762D01*
X48571429Y-34261905D01*
X48476190Y-34214286D01*
X48380952Y-34214286D01*
X48428571Y-34452381D02*
X48333333Y-34404762D01*
X48238095Y-34309524D01*
X48190476Y-34119048D01*
X48190476Y-33785714D01*
X48238095Y-33595238D01*
X48333333Y-33500000D01*
X48428571Y-33452381D01*
X48619048Y-33452381D01*
X48714286Y-33500000D01*
X48809524Y-33595238D01*
X48857143Y-33785714D01*
X48857143Y-34119048D01*
X48809524Y-34309524D01*
X48714286Y-34404762D01*
X48619048Y-34452381D01*
X48428571Y-34452381D01*
X49190476Y-33452381D02*
X49809524Y-33452381D01*
X49476190Y-33833333D01*
X49619048Y-33833333D01*
X49714286Y-33880952D01*
X49761905Y-33928571D01*
X49809524Y-34023810D01*
X49809524Y-34261905D01*
X49761905Y-34357143D01*
X49714286Y-34404762D01*
X49619048Y-34452381D01*
X49333333Y-34452381D01*
X49238095Y-34404762D01*
X49190476Y-34357143D01*
X51162254Y-59952261D02*
X50828920Y-59476070D01*
X50590825Y-59952261D02*
X50590825Y-58952261D01*
X50971778Y-58952261D01*
X51067016Y-58999880D01*
X51114635Y-59047499D01*
X51162254Y-59142737D01*
X51162254Y-59285594D01*
X51114635Y-59380832D01*
X51067016Y-59428451D01*
X50971778Y-59476070D01*
X50590825Y-59476070D01*
X52114635Y-59952261D02*
X51543206Y-59952261D01*
X51828920Y-59952261D02*
X51828920Y-58952261D01*
X51733682Y-59095118D01*
X51638444Y-59190356D01*
X51543206Y-59237975D01*
X51162254Y-42952261D02*
X50828920Y-42476070D01*
X50590825Y-42952261D02*
X50590825Y-41952261D01*
X50971778Y-41952261D01*
X51067016Y-41999880D01*
X51114635Y-42047499D01*
X51162254Y-42142737D01*
X51162254Y-42285594D01*
X51114635Y-42380832D01*
X51067016Y-42428451D01*
X50971778Y-42476070D01*
X50590825Y-42476070D01*
X51543206Y-42047499D02*
X51590825Y-41999880D01*
X51686063Y-41952261D01*
X51924159Y-41952261D01*
X52019397Y-41999880D01*
X52067016Y-42047499D01*
X52114635Y-42142737D01*
X52114635Y-42237975D01*
X52067016Y-42380832D01*
X51495587Y-42952261D01*
X52114635Y-42952261D01*
X51162254Y-26952261D02*
X50828920Y-26476070D01*
X50590825Y-26952261D02*
X50590825Y-25952261D01*
X50971778Y-25952261D01*
X51067016Y-25999880D01*
X51114635Y-26047499D01*
X51162254Y-26142737D01*
X51162254Y-26285594D01*
X51114635Y-26380832D01*
X51067016Y-26428451D01*
X50971778Y-26476070D01*
X50590825Y-26476070D01*
X51495587Y-25952261D02*
X52114635Y-25952261D01*
X51781301Y-26333213D01*
X51924159Y-26333213D01*
X52019397Y-26380832D01*
X52067016Y-26428451D01*
X52114635Y-26523690D01*
X52114635Y-26761785D01*
X52067016Y-26857023D01*
X52019397Y-26904642D01*
X51924159Y-26952261D01*
X51638444Y-26952261D01*
X51543206Y-26904642D01*
X51495587Y-26857023D01*
X97162254Y-36952261D02*
X96828920Y-36476070D01*
X96590825Y-36952261D02*
X96590825Y-35952261D01*
X96971778Y-35952261D01*
X97067016Y-35999880D01*
X97114635Y-36047499D01*
X97162254Y-36142737D01*
X97162254Y-36285594D01*
X97114635Y-36380832D01*
X97067016Y-36428451D01*
X96971778Y-36476070D01*
X96590825Y-36476070D01*
X98019397Y-36285594D02*
X98019397Y-36952261D01*
X97781301Y-35904642D02*
X97543206Y-36618928D01*
X98162254Y-36618928D01*
X118666667Y-21952381D02*
X118333333Y-21476190D01*
X118095238Y-21952381D02*
X118095238Y-20952381D01*
X118476191Y-20952381D01*
X118571429Y-21000000D01*
X118619048Y-21047619D01*
X118666667Y-21142857D01*
X118666667Y-21285714D01*
X118619048Y-21380952D01*
X118571429Y-21428571D01*
X118476191Y-21476190D01*
X118095238Y-21476190D01*
X119095238Y-21428571D02*
X119428572Y-21428571D01*
X119571429Y-21952381D02*
X119095238Y-21952381D01*
X119095238Y-20952381D01*
X119571429Y-20952381D01*
X120333334Y-21428571D02*
X120000000Y-21428571D01*
X120000000Y-21952381D02*
X120000000Y-20952381D01*
X120476191Y-20952381D01*
X121000000Y-20952381D02*
X121000000Y-21190476D01*
X120761905Y-21095238D02*
X121000000Y-21190476D01*
X121238096Y-21095238D01*
X120857143Y-21380952D02*
X121000000Y-21190476D01*
X121142858Y-21380952D01*
X121761905Y-20952381D02*
X121761905Y-21190476D01*
X121523810Y-21095238D02*
X121761905Y-21190476D01*
X122000001Y-21095238D01*
X121619048Y-21380952D02*
X121761905Y-21190476D01*
X121904763Y-21380952D01*
X118666667Y-70952381D02*
X118333333Y-70476190D01*
X118095238Y-70952381D02*
X118095238Y-69952381D01*
X118476191Y-69952381D01*
X118571429Y-70000000D01*
X118619048Y-70047619D01*
X118666667Y-70142857D01*
X118666667Y-70285714D01*
X118619048Y-70380952D01*
X118571429Y-70428571D01*
X118476191Y-70476190D01*
X118095238Y-70476190D01*
X119095238Y-70428571D02*
X119428572Y-70428571D01*
X119571429Y-70952381D02*
X119095238Y-70952381D01*
X119095238Y-69952381D01*
X119571429Y-69952381D01*
X120333334Y-70428571D02*
X120000000Y-70428571D01*
X120000000Y-70952381D02*
X120000000Y-69952381D01*
X120476191Y-69952381D01*
X121000000Y-69952381D02*
X121000000Y-70190476D01*
X120761905Y-70095238D02*
X121000000Y-70190476D01*
X121238096Y-70095238D01*
X120857143Y-70380952D02*
X121000000Y-70190476D01*
X121142858Y-70380952D01*
X121761905Y-69952381D02*
X121761905Y-70190476D01*
X121523810Y-70095238D02*
X121761905Y-70190476D01*
X122000001Y-70095238D01*
X121619048Y-70380952D02*
X121761905Y-70190476D01*
X121904763Y-70380952D01*
X29666667Y-70952381D02*
X29333333Y-70476190D01*
X29095238Y-70952381D02*
X29095238Y-69952381D01*
X29476191Y-69952381D01*
X29571429Y-70000000D01*
X29619048Y-70047619D01*
X29666667Y-70142857D01*
X29666667Y-70285714D01*
X29619048Y-70380952D01*
X29571429Y-70428571D01*
X29476191Y-70476190D01*
X29095238Y-70476190D01*
X30095238Y-70428571D02*
X30428572Y-70428571D01*
X30571429Y-70952381D02*
X30095238Y-70952381D01*
X30095238Y-69952381D01*
X30571429Y-69952381D01*
X31333334Y-70428571D02*
X31000000Y-70428571D01*
X31000000Y-70952381D02*
X31000000Y-69952381D01*
X31476191Y-69952381D01*
X32000000Y-69952381D02*
X32000000Y-70190476D01*
X31761905Y-70095238D02*
X32000000Y-70190476D01*
X32238096Y-70095238D01*
X31857143Y-70380952D02*
X32000000Y-70190476D01*
X32142858Y-70380952D01*
X32761905Y-69952381D02*
X32761905Y-70190476D01*
X32523810Y-70095238D02*
X32761905Y-70190476D01*
X33000001Y-70095238D01*
X32619048Y-70380952D02*
X32761905Y-70190476D01*
X32904763Y-70380952D01*
X29666667Y-21952381D02*
X29333333Y-21476190D01*
X29095238Y-21952381D02*
X29095238Y-20952381D01*
X29476191Y-20952381D01*
X29571429Y-21000000D01*
X29619048Y-21047619D01*
X29666667Y-21142857D01*
X29666667Y-21285714D01*
X29619048Y-21380952D01*
X29571429Y-21428571D01*
X29476191Y-21476190D01*
X29095238Y-21476190D01*
X30095238Y-21428571D02*
X30428572Y-21428571D01*
X30571429Y-21952381D02*
X30095238Y-21952381D01*
X30095238Y-20952381D01*
X30571429Y-20952381D01*
X31333334Y-21428571D02*
X31000000Y-21428571D01*
X31000000Y-21952381D02*
X31000000Y-20952381D01*
X31476191Y-20952381D01*
X32000000Y-20952381D02*
X32000000Y-21190476D01*
X31761905Y-21095238D02*
X32000000Y-21190476D01*
X32238096Y-21095238D01*
X31857143Y-21380952D02*
X32000000Y-21190476D01*
X32142858Y-21380952D01*
X32761905Y-20952381D02*
X32761905Y-21190476D01*
X32523810Y-21095238D02*
X32761905Y-21190476D01*
X33000001Y-21095238D01*
X32619048Y-21380952D02*
X32761905Y-21190476D01*
X32904763Y-21380952D01*
X92023810Y-43232381D02*
X92023810Y-42232381D01*
X93071429Y-43137143D02*
X93023810Y-43184762D01*
X92880953Y-43232381D01*
X92785715Y-43232381D01*
X92642857Y-43184762D01*
X92547619Y-43089524D01*
X92500000Y-42994286D01*
X92452381Y-42803810D01*
X92452381Y-42660952D01*
X92500000Y-42470476D01*
X92547619Y-42375238D01*
X92642857Y-42280000D01*
X92785715Y-42232381D01*
X92880953Y-42232381D01*
X93023810Y-42280000D01*
X93071429Y-42327619D01*
X94023810Y-43232381D02*
X93452381Y-43232381D01*
X93738095Y-43232381D02*
X93738095Y-42232381D01*
X93642857Y-42375238D01*
X93547619Y-42470476D01*
X93452381Y-42518095D01*
X79261905Y-68202381D02*
X79261905Y-67202381D01*
X79642858Y-67202381D01*
X79738096Y-67250000D01*
X79785715Y-67297619D01*
X79833334Y-67392857D01*
X79833334Y-67535714D01*
X79785715Y-67630952D01*
X79738096Y-67678571D01*
X79642858Y-67726190D01*
X79261905Y-67726190D01*
X80785715Y-68202381D02*
X80214286Y-68202381D01*
X80500000Y-68202381D02*
X80500000Y-67202381D01*
X80404762Y-67345238D01*
X80309524Y-67440476D01*
X80214286Y-67488095D01*
M02*
