G04 #@! TF.FileFunction,Copper,L1,Top,Signal*
%FSLAX46Y46*%
G04 Gerber Fmt 4.6, Leading zero omitted, Abs format (unit mm)*
G04 Created by KiCad (PCBNEW 4.0.5+dfsg1-4) date Sun Jul  1 16:29:06 2018*
%MOMM*%
%LPD*%
G01*
G04 APERTURE LIST*
%ADD10C,0.100000*%
%ADD11R,1.727200X2.032000*%
%ADD12O,1.727200X2.032000*%
%ADD13C,1.000760*%
%ADD14C,1.998980*%
%ADD15O,1.600000X1.600000*%
%ADD16C,0.250000*%
%ADD17C,0.254000*%
G04 APERTURE END LIST*
D10*
D11*
X82000000Y-26000000D03*
D12*
X79460000Y-26000000D03*
X76920000Y-26000000D03*
X74380000Y-26000000D03*
X71840000Y-26000000D03*
D13*
X50270000Y-68730000D03*
X51540000Y-70000000D03*
X49000000Y-70000000D03*
X50270000Y-51730000D03*
X51540000Y-53000000D03*
X49000000Y-53000000D03*
X50270000Y-36730000D03*
X51540000Y-38000000D03*
X49000000Y-38000000D03*
D14*
X46000000Y-63000000D03*
X56160000Y-63000000D03*
X46000000Y-46000000D03*
X56160000Y-46000000D03*
X46000000Y-30000000D03*
X56160000Y-30000000D03*
X92000000Y-40000000D03*
X102160000Y-40000000D03*
D15*
X93000000Y-48000000D03*
X93000000Y-50540000D03*
X93000000Y-53080000D03*
X93000000Y-55620000D03*
X100620000Y-55620000D03*
X100620000Y-53080000D03*
X100620000Y-50540000D03*
X100620000Y-48000000D03*
D11*
X80000000Y-63000000D03*
D12*
X77460000Y-63000000D03*
X74920000Y-63000000D03*
X72380000Y-63000000D03*
D16*
X93000000Y-48000000D02*
X93000000Y-41000000D01*
X93000000Y-41000000D02*
X92000000Y-40000000D01*
X93000000Y-50540000D02*
X60700000Y-50540000D01*
X60700000Y-50540000D02*
X56160000Y-46000000D01*
X93000000Y-53080000D02*
X66080000Y-53080000D01*
X66080000Y-53080000D02*
X56160000Y-63000000D01*
X100620000Y-55620000D02*
X97380000Y-55620000D01*
X77920000Y-60000000D02*
X74920000Y-63000000D01*
X93000000Y-60000000D02*
X77920000Y-60000000D01*
X97380000Y-55620000D02*
X93000000Y-60000000D01*
X100620000Y-53080000D02*
X101080000Y-53080000D01*
X101080000Y-53080000D02*
X103000000Y-55000000D01*
X80000000Y-66000000D02*
X77460000Y-63460000D01*
X103000000Y-66000000D02*
X80000000Y-66000000D01*
X103000000Y-55000000D02*
X103000000Y-66000000D01*
X77460000Y-63460000D02*
X77460000Y-63000000D01*
X100620000Y-53080000D02*
X100620000Y-53380000D01*
X56160000Y-30000000D02*
X58000000Y-30000000D01*
X107000000Y-44160000D02*
X100620000Y-50540000D01*
X107000000Y-33000000D02*
X107000000Y-44160000D01*
X98000000Y-24000000D02*
X107000000Y-33000000D01*
X64000000Y-24000000D02*
X98000000Y-24000000D01*
X58000000Y-30000000D02*
X64000000Y-24000000D01*
X100620000Y-48000000D02*
X100620000Y-41540000D01*
X100620000Y-41540000D02*
X102160000Y-40000000D01*
X50270000Y-68730000D02*
X50270000Y-67270000D01*
X50270000Y-67270000D02*
X46000000Y-63000000D01*
X50270000Y-51730000D02*
X50270000Y-50270000D01*
X50270000Y-50270000D02*
X46000000Y-46000000D01*
X50270000Y-36730000D02*
X50270000Y-34270000D01*
X50270000Y-34270000D02*
X46000000Y-30000000D01*
X74380000Y-26000000D02*
X74380000Y-27620000D01*
X64000000Y-38000000D02*
X51540000Y-38000000D01*
X74380000Y-27620000D02*
X64000000Y-38000000D01*
D17*
G36*
X122290000Y-76290000D02*
X28710000Y-76290000D01*
X28710000Y-74373305D01*
X29114674Y-74373305D01*
X29401043Y-75066372D01*
X29930839Y-75597093D01*
X30623405Y-75884672D01*
X31373305Y-75885326D01*
X32066372Y-75598957D01*
X32597093Y-75069161D01*
X32884672Y-74376595D01*
X32884674Y-74373305D01*
X118114674Y-74373305D01*
X118401043Y-75066372D01*
X118930839Y-75597093D01*
X119623405Y-75884672D01*
X120373305Y-75885326D01*
X121066372Y-75598957D01*
X121597093Y-75069161D01*
X121884672Y-74376595D01*
X121885326Y-73626695D01*
X121598957Y-72933628D01*
X121069161Y-72402907D01*
X120376595Y-72115328D01*
X119626695Y-72114674D01*
X118933628Y-72401043D01*
X118402907Y-72930839D01*
X118115328Y-73623405D01*
X118114674Y-74373305D01*
X32884674Y-74373305D01*
X32885326Y-73626695D01*
X32598957Y-72933628D01*
X32069161Y-72402907D01*
X31376595Y-72115328D01*
X30626695Y-72114674D01*
X29933628Y-72401043D01*
X29402907Y-72930839D01*
X29115328Y-73623405D01*
X29114674Y-74373305D01*
X28710000Y-74373305D01*
X28710000Y-63323694D01*
X44365226Y-63323694D01*
X44613538Y-63924655D01*
X45072927Y-64384846D01*
X45673453Y-64634206D01*
X46323694Y-64634774D01*
X46490889Y-64565691D01*
X49510000Y-67584802D01*
X49510000Y-67884405D01*
X49308033Y-68086019D01*
X49134818Y-68503168D01*
X49134503Y-68864737D01*
X48775150Y-68864424D01*
X48357699Y-69036911D01*
X48038033Y-69356019D01*
X47864818Y-69773168D01*
X47864424Y-70224850D01*
X48036911Y-70642301D01*
X48356019Y-70961967D01*
X48773168Y-71135182D01*
X49224850Y-71135576D01*
X49642301Y-70963089D01*
X49961967Y-70643981D01*
X50135182Y-70226832D01*
X50135497Y-69865263D01*
X50404737Y-69865497D01*
X50404424Y-70224850D01*
X50576911Y-70642301D01*
X50896019Y-70961967D01*
X51313168Y-71135182D01*
X51764850Y-71135576D01*
X52182301Y-70963089D01*
X52501967Y-70643981D01*
X52675182Y-70226832D01*
X52675576Y-69775150D01*
X52503089Y-69357699D01*
X52183981Y-69038033D01*
X51766832Y-68864818D01*
X51405263Y-68864503D01*
X51405576Y-68505150D01*
X51233089Y-68087699D01*
X51030000Y-67884255D01*
X51030000Y-67270000D01*
X50972148Y-66979161D01*
X50807401Y-66732599D01*
X47565885Y-63491083D01*
X47634206Y-63326547D01*
X47634774Y-62676306D01*
X47386462Y-62075345D01*
X46927073Y-61615154D01*
X46326547Y-61365794D01*
X45676306Y-61365226D01*
X45075345Y-61613538D01*
X44615154Y-62072927D01*
X44365794Y-62673453D01*
X44365226Y-63323694D01*
X28710000Y-63323694D01*
X28710000Y-46323694D01*
X44365226Y-46323694D01*
X44613538Y-46924655D01*
X45072927Y-47384846D01*
X45673453Y-47634206D01*
X46323694Y-47634774D01*
X46490889Y-47565691D01*
X49510000Y-50584802D01*
X49510000Y-50884405D01*
X49308033Y-51086019D01*
X49134818Y-51503168D01*
X49134503Y-51864737D01*
X48775150Y-51864424D01*
X48357699Y-52036911D01*
X48038033Y-52356019D01*
X47864818Y-52773168D01*
X47864424Y-53224850D01*
X48036911Y-53642301D01*
X48356019Y-53961967D01*
X48773168Y-54135182D01*
X49224850Y-54135576D01*
X49642301Y-53963089D01*
X49961967Y-53643981D01*
X50135182Y-53226832D01*
X50135497Y-52865263D01*
X50404737Y-52865497D01*
X50404424Y-53224850D01*
X50576911Y-53642301D01*
X50896019Y-53961967D01*
X51313168Y-54135182D01*
X51764850Y-54135576D01*
X52182301Y-53963089D01*
X52501967Y-53643981D01*
X52675182Y-53226832D01*
X52675576Y-52775150D01*
X52503089Y-52357699D01*
X52183981Y-52038033D01*
X51766832Y-51864818D01*
X51405263Y-51864503D01*
X51405576Y-51505150D01*
X51233089Y-51087699D01*
X51030000Y-50884255D01*
X51030000Y-50270000D01*
X50972148Y-49979161D01*
X50807401Y-49732599D01*
X47565885Y-46491083D01*
X47634206Y-46326547D01*
X47634208Y-46323694D01*
X54525226Y-46323694D01*
X54773538Y-46924655D01*
X55232927Y-47384846D01*
X55833453Y-47634206D01*
X56483694Y-47634774D01*
X56650889Y-47565691D01*
X60162599Y-51077401D01*
X60409161Y-51242148D01*
X60700000Y-51300000D01*
X91787005Y-51300000D01*
X91957189Y-51554698D01*
X92339275Y-51810000D01*
X91957189Y-52065302D01*
X91787005Y-52320000D01*
X66080000Y-52320000D01*
X65789161Y-52377852D01*
X65542599Y-52542599D01*
X56651083Y-61434115D01*
X56486547Y-61365794D01*
X55836306Y-61365226D01*
X55235345Y-61613538D01*
X54775154Y-62072927D01*
X54525794Y-62673453D01*
X54525226Y-63323694D01*
X54773538Y-63924655D01*
X55232927Y-64384846D01*
X55833453Y-64634206D01*
X56483694Y-64634774D01*
X57084655Y-64386462D01*
X57544846Y-63927073D01*
X57779520Y-63361913D01*
X70894816Y-63361913D01*
X71088046Y-63914320D01*
X71477964Y-64350732D01*
X72005209Y-64604709D01*
X72020974Y-64607358D01*
X72253000Y-64486217D01*
X72253000Y-63127000D01*
X71039076Y-63127000D01*
X70894816Y-63361913D01*
X57779520Y-63361913D01*
X57794206Y-63326547D01*
X57794774Y-62676306D01*
X57778983Y-62638087D01*
X70894816Y-62638087D01*
X71039076Y-62873000D01*
X72253000Y-62873000D01*
X72253000Y-61513783D01*
X72020974Y-61392642D01*
X72005209Y-61395291D01*
X71477964Y-61649268D01*
X71088046Y-62085680D01*
X70894816Y-62638087D01*
X57778983Y-62638087D01*
X57725691Y-62509111D01*
X66394802Y-53840000D01*
X91787005Y-53840000D01*
X91957189Y-54094698D01*
X92339275Y-54350000D01*
X91957189Y-54605302D01*
X91646120Y-55070849D01*
X91536887Y-55620000D01*
X91646120Y-56169151D01*
X91957189Y-56634698D01*
X92422736Y-56945767D01*
X92971887Y-57055000D01*
X93028113Y-57055000D01*
X93577264Y-56945767D01*
X94042811Y-56634698D01*
X94353880Y-56169151D01*
X94463113Y-55620000D01*
X94353880Y-55070849D01*
X94042811Y-54605302D01*
X93660725Y-54350000D01*
X94042811Y-54094698D01*
X94353880Y-53629151D01*
X94463113Y-53080000D01*
X94353880Y-52530849D01*
X94042811Y-52065302D01*
X93660725Y-51810000D01*
X94042811Y-51554698D01*
X94353880Y-51089151D01*
X94463113Y-50540000D01*
X94353880Y-49990849D01*
X94042811Y-49525302D01*
X93660725Y-49270000D01*
X94042811Y-49014698D01*
X94353880Y-48549151D01*
X94463113Y-48000000D01*
X94393685Y-47650961D01*
X99228096Y-47650961D01*
X99350085Y-47873000D01*
X100493000Y-47873000D01*
X100493000Y-46729371D01*
X100747000Y-46729371D01*
X100747000Y-47873000D01*
X101889915Y-47873000D01*
X102011904Y-47650961D01*
X101851041Y-47262577D01*
X101475134Y-46847611D01*
X100969041Y-46608086D01*
X100747000Y-46729371D01*
X100493000Y-46729371D01*
X100270959Y-46608086D01*
X99764866Y-46847611D01*
X99388959Y-47262577D01*
X99228096Y-47650961D01*
X94393685Y-47650961D01*
X94353880Y-47450849D01*
X94042811Y-46985302D01*
X93760000Y-46796333D01*
X93760000Y-41152163D01*
X101187443Y-41152163D01*
X101286042Y-41418965D01*
X101895582Y-41645401D01*
X102545377Y-41621341D01*
X103033958Y-41418965D01*
X103132557Y-41152163D01*
X102160000Y-40179605D01*
X101187443Y-41152163D01*
X93760000Y-41152163D01*
X93760000Y-41000000D01*
X93702148Y-40709161D01*
X93562262Y-40499807D01*
X93634206Y-40326547D01*
X93634722Y-39735582D01*
X100514599Y-39735582D01*
X100538659Y-40385377D01*
X100741035Y-40873958D01*
X101007837Y-40972557D01*
X101980395Y-40000000D01*
X102339605Y-40000000D01*
X103312163Y-40972557D01*
X103578965Y-40873958D01*
X103805401Y-40264418D01*
X103781341Y-39614623D01*
X103578965Y-39126042D01*
X103312163Y-39027443D01*
X102339605Y-40000000D01*
X101980395Y-40000000D01*
X101007837Y-39027443D01*
X100741035Y-39126042D01*
X100514599Y-39735582D01*
X93634722Y-39735582D01*
X93634774Y-39676306D01*
X93386462Y-39075345D01*
X93159351Y-38847837D01*
X101187443Y-38847837D01*
X102160000Y-39820395D01*
X103132557Y-38847837D01*
X103033958Y-38581035D01*
X102424418Y-38354599D01*
X101774623Y-38378659D01*
X101286042Y-38581035D01*
X101187443Y-38847837D01*
X93159351Y-38847837D01*
X92927073Y-38615154D01*
X92326547Y-38365794D01*
X91676306Y-38365226D01*
X91075345Y-38613538D01*
X90615154Y-39072927D01*
X90365794Y-39673453D01*
X90365226Y-40323694D01*
X90613538Y-40924655D01*
X91072927Y-41384846D01*
X91673453Y-41634206D01*
X92240000Y-41634701D01*
X92240000Y-46796333D01*
X91957189Y-46985302D01*
X91646120Y-47450849D01*
X91536887Y-48000000D01*
X91646120Y-48549151D01*
X91957189Y-49014698D01*
X92339275Y-49270000D01*
X91957189Y-49525302D01*
X91787005Y-49780000D01*
X61014802Y-49780000D01*
X57725885Y-46491083D01*
X57794206Y-46326547D01*
X57794774Y-45676306D01*
X57546462Y-45075345D01*
X57087073Y-44615154D01*
X56486547Y-44365794D01*
X55836306Y-44365226D01*
X55235345Y-44613538D01*
X54775154Y-45072927D01*
X54525794Y-45673453D01*
X54525226Y-46323694D01*
X47634208Y-46323694D01*
X47634774Y-45676306D01*
X47386462Y-45075345D01*
X46927073Y-44615154D01*
X46326547Y-44365794D01*
X45676306Y-44365226D01*
X45075345Y-44613538D01*
X44615154Y-45072927D01*
X44365794Y-45673453D01*
X44365226Y-46323694D01*
X28710000Y-46323694D01*
X28710000Y-30323694D01*
X44365226Y-30323694D01*
X44613538Y-30924655D01*
X45072927Y-31384846D01*
X45673453Y-31634206D01*
X46323694Y-31634774D01*
X46490889Y-31565691D01*
X49510000Y-34584802D01*
X49510000Y-35884405D01*
X49308033Y-36086019D01*
X49134818Y-36503168D01*
X49134503Y-36864737D01*
X48775150Y-36864424D01*
X48357699Y-37036911D01*
X48038033Y-37356019D01*
X47864818Y-37773168D01*
X47864424Y-38224850D01*
X48036911Y-38642301D01*
X48356019Y-38961967D01*
X48773168Y-39135182D01*
X49224850Y-39135576D01*
X49642301Y-38963089D01*
X49961967Y-38643981D01*
X50135182Y-38226832D01*
X50135497Y-37865263D01*
X50404737Y-37865497D01*
X50404424Y-38224850D01*
X50576911Y-38642301D01*
X50896019Y-38961967D01*
X51313168Y-39135182D01*
X51764850Y-39135576D01*
X52182301Y-38963089D01*
X52385745Y-38760000D01*
X64000000Y-38760000D01*
X64290839Y-38702148D01*
X64537401Y-38537401D01*
X74917401Y-28157401D01*
X75082148Y-27910839D01*
X75140000Y-27620000D01*
X75140000Y-27444648D01*
X75439670Y-27244415D01*
X75650000Y-26929634D01*
X75860330Y-27244415D01*
X76346511Y-27569271D01*
X76920000Y-27683345D01*
X77493489Y-27569271D01*
X77979670Y-27244415D01*
X78190000Y-26929634D01*
X78400330Y-27244415D01*
X78886511Y-27569271D01*
X79460000Y-27683345D01*
X80033489Y-27569271D01*
X80519670Y-27244415D01*
X80534500Y-27222220D01*
X80598073Y-27375698D01*
X80776701Y-27554327D01*
X81010090Y-27651000D01*
X81714250Y-27651000D01*
X81873000Y-27492250D01*
X81873000Y-26127000D01*
X82127000Y-26127000D01*
X82127000Y-27492250D01*
X82285750Y-27651000D01*
X82989910Y-27651000D01*
X83223299Y-27554327D01*
X83401927Y-27375698D01*
X83498600Y-27142309D01*
X83498600Y-26285750D01*
X83339850Y-26127000D01*
X82127000Y-26127000D01*
X81873000Y-26127000D01*
X81853000Y-26127000D01*
X81853000Y-25873000D01*
X81873000Y-25873000D01*
X81873000Y-25853000D01*
X82127000Y-25853000D01*
X82127000Y-25873000D01*
X83339850Y-25873000D01*
X83498600Y-25714250D01*
X83498600Y-24857691D01*
X83458135Y-24760000D01*
X97685198Y-24760000D01*
X106240000Y-33314802D01*
X106240000Y-43845198D01*
X101914127Y-48171071D01*
X101889915Y-48127000D01*
X100747000Y-48127000D01*
X100747000Y-48147000D01*
X100493000Y-48147000D01*
X100493000Y-48127000D01*
X99350085Y-48127000D01*
X99228096Y-48349039D01*
X99388959Y-48737423D01*
X99764866Y-49152389D01*
X99981703Y-49255014D01*
X99577189Y-49525302D01*
X99266120Y-49990849D01*
X99156887Y-50540000D01*
X99266120Y-51089151D01*
X99577189Y-51554698D01*
X99959275Y-51810000D01*
X99577189Y-52065302D01*
X99266120Y-52530849D01*
X99156887Y-53080000D01*
X99266120Y-53629151D01*
X99577189Y-54094698D01*
X99959275Y-54350000D01*
X99577189Y-54605302D01*
X99407005Y-54860000D01*
X97380000Y-54860000D01*
X97137414Y-54908254D01*
X97089160Y-54917852D01*
X96842599Y-55082599D01*
X92685198Y-59240000D01*
X77920000Y-59240000D01*
X77629161Y-59297852D01*
X77382599Y-59462599D01*
X75427579Y-61417619D01*
X74920000Y-61316655D01*
X74346511Y-61430729D01*
X73860330Y-61755585D01*
X73653539Y-62065069D01*
X73282036Y-61649268D01*
X72754791Y-61395291D01*
X72739026Y-61392642D01*
X72507000Y-61513783D01*
X72507000Y-62873000D01*
X72527000Y-62873000D01*
X72527000Y-63127000D01*
X72507000Y-63127000D01*
X72507000Y-64486217D01*
X72739026Y-64607358D01*
X72754791Y-64604709D01*
X73282036Y-64350732D01*
X73653539Y-63934931D01*
X73860330Y-64244415D01*
X74346511Y-64569271D01*
X74920000Y-64683345D01*
X75493489Y-64569271D01*
X75979670Y-64244415D01*
X76190000Y-63929634D01*
X76400330Y-64244415D01*
X76886511Y-64569271D01*
X77460000Y-64683345D01*
X77583898Y-64658700D01*
X79462599Y-66537401D01*
X79709160Y-66702148D01*
X79757414Y-66711746D01*
X80000000Y-66760000D01*
X103000000Y-66760000D01*
X103290839Y-66702148D01*
X103537401Y-66537401D01*
X103702148Y-66290839D01*
X103760000Y-66000000D01*
X103760000Y-55000000D01*
X103702148Y-54709161D01*
X103537401Y-54462599D01*
X102065312Y-52990510D01*
X101973880Y-52530849D01*
X101662811Y-52065302D01*
X101280725Y-51810000D01*
X101662811Y-51554698D01*
X101973880Y-51089151D01*
X102083113Y-50540000D01*
X102018688Y-50216114D01*
X107537401Y-44697401D01*
X107702148Y-44450839D01*
X107760000Y-44160000D01*
X107760000Y-33000000D01*
X107702148Y-32709161D01*
X107537401Y-32462599D01*
X100448107Y-25373305D01*
X118114674Y-25373305D01*
X118401043Y-26066372D01*
X118930839Y-26597093D01*
X119623405Y-26884672D01*
X120373305Y-26885326D01*
X121066372Y-26598957D01*
X121597093Y-26069161D01*
X121884672Y-25376595D01*
X121885326Y-24626695D01*
X121598957Y-23933628D01*
X121069161Y-23402907D01*
X120376595Y-23115328D01*
X119626695Y-23114674D01*
X118933628Y-23401043D01*
X118402907Y-23930839D01*
X118115328Y-24623405D01*
X118114674Y-25373305D01*
X100448107Y-25373305D01*
X98537401Y-23462599D01*
X98290839Y-23297852D01*
X98000000Y-23240000D01*
X64000000Y-23240000D01*
X63709160Y-23297852D01*
X63462599Y-23462599D01*
X57685198Y-29240000D01*
X57614496Y-29240000D01*
X57546462Y-29075345D01*
X57087073Y-28615154D01*
X56486547Y-28365794D01*
X55836306Y-28365226D01*
X55235345Y-28613538D01*
X54775154Y-29072927D01*
X54525794Y-29673453D01*
X54525226Y-30323694D01*
X54773538Y-30924655D01*
X55232927Y-31384846D01*
X55833453Y-31634206D01*
X56483694Y-31634774D01*
X57084655Y-31386462D01*
X57544846Y-30927073D01*
X57614221Y-30760000D01*
X58000000Y-30760000D01*
X58290839Y-30702148D01*
X58537401Y-30537401D01*
X64314802Y-24760000D01*
X70777380Y-24760000D01*
X70455474Y-25241766D01*
X70341400Y-25815255D01*
X70341400Y-26184745D01*
X70455474Y-26758234D01*
X70780330Y-27244415D01*
X71266511Y-27569271D01*
X71840000Y-27683345D01*
X72413489Y-27569271D01*
X72899670Y-27244415D01*
X73110000Y-26929634D01*
X73320330Y-27244415D01*
X73536406Y-27388792D01*
X63685198Y-37240000D01*
X52385595Y-37240000D01*
X52183981Y-37038033D01*
X51766832Y-36864818D01*
X51405263Y-36864503D01*
X51405576Y-36505150D01*
X51233089Y-36087699D01*
X51030000Y-35884255D01*
X51030000Y-34270000D01*
X50972148Y-33979161D01*
X50807401Y-33732599D01*
X47565885Y-30491083D01*
X47634206Y-30326547D01*
X47634774Y-29676306D01*
X47386462Y-29075345D01*
X46927073Y-28615154D01*
X46326547Y-28365794D01*
X45676306Y-28365226D01*
X45075345Y-28613538D01*
X44615154Y-29072927D01*
X44365794Y-29673453D01*
X44365226Y-30323694D01*
X28710000Y-30323694D01*
X28710000Y-25373305D01*
X29114674Y-25373305D01*
X29401043Y-26066372D01*
X29930839Y-26597093D01*
X30623405Y-26884672D01*
X31373305Y-26885326D01*
X32066372Y-26598957D01*
X32597093Y-26069161D01*
X32884672Y-25376595D01*
X32885326Y-24626695D01*
X32598957Y-23933628D01*
X32069161Y-23402907D01*
X31376595Y-23115328D01*
X30626695Y-23114674D01*
X29933628Y-23401043D01*
X29402907Y-23930839D01*
X29115328Y-24623405D01*
X29114674Y-25373305D01*
X28710000Y-25373305D01*
X28710000Y-22710000D01*
X122290000Y-22710000D01*
X122290000Y-76290000D01*
X122290000Y-76290000D01*
G37*
X122290000Y-76290000D02*
X28710000Y-76290000D01*
X28710000Y-74373305D01*
X29114674Y-74373305D01*
X29401043Y-75066372D01*
X29930839Y-75597093D01*
X30623405Y-75884672D01*
X31373305Y-75885326D01*
X32066372Y-75598957D01*
X32597093Y-75069161D01*
X32884672Y-74376595D01*
X32884674Y-74373305D01*
X118114674Y-74373305D01*
X118401043Y-75066372D01*
X118930839Y-75597093D01*
X119623405Y-75884672D01*
X120373305Y-75885326D01*
X121066372Y-75598957D01*
X121597093Y-75069161D01*
X121884672Y-74376595D01*
X121885326Y-73626695D01*
X121598957Y-72933628D01*
X121069161Y-72402907D01*
X120376595Y-72115328D01*
X119626695Y-72114674D01*
X118933628Y-72401043D01*
X118402907Y-72930839D01*
X118115328Y-73623405D01*
X118114674Y-74373305D01*
X32884674Y-74373305D01*
X32885326Y-73626695D01*
X32598957Y-72933628D01*
X32069161Y-72402907D01*
X31376595Y-72115328D01*
X30626695Y-72114674D01*
X29933628Y-72401043D01*
X29402907Y-72930839D01*
X29115328Y-73623405D01*
X29114674Y-74373305D01*
X28710000Y-74373305D01*
X28710000Y-63323694D01*
X44365226Y-63323694D01*
X44613538Y-63924655D01*
X45072927Y-64384846D01*
X45673453Y-64634206D01*
X46323694Y-64634774D01*
X46490889Y-64565691D01*
X49510000Y-67584802D01*
X49510000Y-67884405D01*
X49308033Y-68086019D01*
X49134818Y-68503168D01*
X49134503Y-68864737D01*
X48775150Y-68864424D01*
X48357699Y-69036911D01*
X48038033Y-69356019D01*
X47864818Y-69773168D01*
X47864424Y-70224850D01*
X48036911Y-70642301D01*
X48356019Y-70961967D01*
X48773168Y-71135182D01*
X49224850Y-71135576D01*
X49642301Y-70963089D01*
X49961967Y-70643981D01*
X50135182Y-70226832D01*
X50135497Y-69865263D01*
X50404737Y-69865497D01*
X50404424Y-70224850D01*
X50576911Y-70642301D01*
X50896019Y-70961967D01*
X51313168Y-71135182D01*
X51764850Y-71135576D01*
X52182301Y-70963089D01*
X52501967Y-70643981D01*
X52675182Y-70226832D01*
X52675576Y-69775150D01*
X52503089Y-69357699D01*
X52183981Y-69038033D01*
X51766832Y-68864818D01*
X51405263Y-68864503D01*
X51405576Y-68505150D01*
X51233089Y-68087699D01*
X51030000Y-67884255D01*
X51030000Y-67270000D01*
X50972148Y-66979161D01*
X50807401Y-66732599D01*
X47565885Y-63491083D01*
X47634206Y-63326547D01*
X47634774Y-62676306D01*
X47386462Y-62075345D01*
X46927073Y-61615154D01*
X46326547Y-61365794D01*
X45676306Y-61365226D01*
X45075345Y-61613538D01*
X44615154Y-62072927D01*
X44365794Y-62673453D01*
X44365226Y-63323694D01*
X28710000Y-63323694D01*
X28710000Y-46323694D01*
X44365226Y-46323694D01*
X44613538Y-46924655D01*
X45072927Y-47384846D01*
X45673453Y-47634206D01*
X46323694Y-47634774D01*
X46490889Y-47565691D01*
X49510000Y-50584802D01*
X49510000Y-50884405D01*
X49308033Y-51086019D01*
X49134818Y-51503168D01*
X49134503Y-51864737D01*
X48775150Y-51864424D01*
X48357699Y-52036911D01*
X48038033Y-52356019D01*
X47864818Y-52773168D01*
X47864424Y-53224850D01*
X48036911Y-53642301D01*
X48356019Y-53961967D01*
X48773168Y-54135182D01*
X49224850Y-54135576D01*
X49642301Y-53963089D01*
X49961967Y-53643981D01*
X50135182Y-53226832D01*
X50135497Y-52865263D01*
X50404737Y-52865497D01*
X50404424Y-53224850D01*
X50576911Y-53642301D01*
X50896019Y-53961967D01*
X51313168Y-54135182D01*
X51764850Y-54135576D01*
X52182301Y-53963089D01*
X52501967Y-53643981D01*
X52675182Y-53226832D01*
X52675576Y-52775150D01*
X52503089Y-52357699D01*
X52183981Y-52038033D01*
X51766832Y-51864818D01*
X51405263Y-51864503D01*
X51405576Y-51505150D01*
X51233089Y-51087699D01*
X51030000Y-50884255D01*
X51030000Y-50270000D01*
X50972148Y-49979161D01*
X50807401Y-49732599D01*
X47565885Y-46491083D01*
X47634206Y-46326547D01*
X47634208Y-46323694D01*
X54525226Y-46323694D01*
X54773538Y-46924655D01*
X55232927Y-47384846D01*
X55833453Y-47634206D01*
X56483694Y-47634774D01*
X56650889Y-47565691D01*
X60162599Y-51077401D01*
X60409161Y-51242148D01*
X60700000Y-51300000D01*
X91787005Y-51300000D01*
X91957189Y-51554698D01*
X92339275Y-51810000D01*
X91957189Y-52065302D01*
X91787005Y-52320000D01*
X66080000Y-52320000D01*
X65789161Y-52377852D01*
X65542599Y-52542599D01*
X56651083Y-61434115D01*
X56486547Y-61365794D01*
X55836306Y-61365226D01*
X55235345Y-61613538D01*
X54775154Y-62072927D01*
X54525794Y-62673453D01*
X54525226Y-63323694D01*
X54773538Y-63924655D01*
X55232927Y-64384846D01*
X55833453Y-64634206D01*
X56483694Y-64634774D01*
X57084655Y-64386462D01*
X57544846Y-63927073D01*
X57779520Y-63361913D01*
X70894816Y-63361913D01*
X71088046Y-63914320D01*
X71477964Y-64350732D01*
X72005209Y-64604709D01*
X72020974Y-64607358D01*
X72253000Y-64486217D01*
X72253000Y-63127000D01*
X71039076Y-63127000D01*
X70894816Y-63361913D01*
X57779520Y-63361913D01*
X57794206Y-63326547D01*
X57794774Y-62676306D01*
X57778983Y-62638087D01*
X70894816Y-62638087D01*
X71039076Y-62873000D01*
X72253000Y-62873000D01*
X72253000Y-61513783D01*
X72020974Y-61392642D01*
X72005209Y-61395291D01*
X71477964Y-61649268D01*
X71088046Y-62085680D01*
X70894816Y-62638087D01*
X57778983Y-62638087D01*
X57725691Y-62509111D01*
X66394802Y-53840000D01*
X91787005Y-53840000D01*
X91957189Y-54094698D01*
X92339275Y-54350000D01*
X91957189Y-54605302D01*
X91646120Y-55070849D01*
X91536887Y-55620000D01*
X91646120Y-56169151D01*
X91957189Y-56634698D01*
X92422736Y-56945767D01*
X92971887Y-57055000D01*
X93028113Y-57055000D01*
X93577264Y-56945767D01*
X94042811Y-56634698D01*
X94353880Y-56169151D01*
X94463113Y-55620000D01*
X94353880Y-55070849D01*
X94042811Y-54605302D01*
X93660725Y-54350000D01*
X94042811Y-54094698D01*
X94353880Y-53629151D01*
X94463113Y-53080000D01*
X94353880Y-52530849D01*
X94042811Y-52065302D01*
X93660725Y-51810000D01*
X94042811Y-51554698D01*
X94353880Y-51089151D01*
X94463113Y-50540000D01*
X94353880Y-49990849D01*
X94042811Y-49525302D01*
X93660725Y-49270000D01*
X94042811Y-49014698D01*
X94353880Y-48549151D01*
X94463113Y-48000000D01*
X94393685Y-47650961D01*
X99228096Y-47650961D01*
X99350085Y-47873000D01*
X100493000Y-47873000D01*
X100493000Y-46729371D01*
X100747000Y-46729371D01*
X100747000Y-47873000D01*
X101889915Y-47873000D01*
X102011904Y-47650961D01*
X101851041Y-47262577D01*
X101475134Y-46847611D01*
X100969041Y-46608086D01*
X100747000Y-46729371D01*
X100493000Y-46729371D01*
X100270959Y-46608086D01*
X99764866Y-46847611D01*
X99388959Y-47262577D01*
X99228096Y-47650961D01*
X94393685Y-47650961D01*
X94353880Y-47450849D01*
X94042811Y-46985302D01*
X93760000Y-46796333D01*
X93760000Y-41152163D01*
X101187443Y-41152163D01*
X101286042Y-41418965D01*
X101895582Y-41645401D01*
X102545377Y-41621341D01*
X103033958Y-41418965D01*
X103132557Y-41152163D01*
X102160000Y-40179605D01*
X101187443Y-41152163D01*
X93760000Y-41152163D01*
X93760000Y-41000000D01*
X93702148Y-40709161D01*
X93562262Y-40499807D01*
X93634206Y-40326547D01*
X93634722Y-39735582D01*
X100514599Y-39735582D01*
X100538659Y-40385377D01*
X100741035Y-40873958D01*
X101007837Y-40972557D01*
X101980395Y-40000000D01*
X102339605Y-40000000D01*
X103312163Y-40972557D01*
X103578965Y-40873958D01*
X103805401Y-40264418D01*
X103781341Y-39614623D01*
X103578965Y-39126042D01*
X103312163Y-39027443D01*
X102339605Y-40000000D01*
X101980395Y-40000000D01*
X101007837Y-39027443D01*
X100741035Y-39126042D01*
X100514599Y-39735582D01*
X93634722Y-39735582D01*
X93634774Y-39676306D01*
X93386462Y-39075345D01*
X93159351Y-38847837D01*
X101187443Y-38847837D01*
X102160000Y-39820395D01*
X103132557Y-38847837D01*
X103033958Y-38581035D01*
X102424418Y-38354599D01*
X101774623Y-38378659D01*
X101286042Y-38581035D01*
X101187443Y-38847837D01*
X93159351Y-38847837D01*
X92927073Y-38615154D01*
X92326547Y-38365794D01*
X91676306Y-38365226D01*
X91075345Y-38613538D01*
X90615154Y-39072927D01*
X90365794Y-39673453D01*
X90365226Y-40323694D01*
X90613538Y-40924655D01*
X91072927Y-41384846D01*
X91673453Y-41634206D01*
X92240000Y-41634701D01*
X92240000Y-46796333D01*
X91957189Y-46985302D01*
X91646120Y-47450849D01*
X91536887Y-48000000D01*
X91646120Y-48549151D01*
X91957189Y-49014698D01*
X92339275Y-49270000D01*
X91957189Y-49525302D01*
X91787005Y-49780000D01*
X61014802Y-49780000D01*
X57725885Y-46491083D01*
X57794206Y-46326547D01*
X57794774Y-45676306D01*
X57546462Y-45075345D01*
X57087073Y-44615154D01*
X56486547Y-44365794D01*
X55836306Y-44365226D01*
X55235345Y-44613538D01*
X54775154Y-45072927D01*
X54525794Y-45673453D01*
X54525226Y-46323694D01*
X47634208Y-46323694D01*
X47634774Y-45676306D01*
X47386462Y-45075345D01*
X46927073Y-44615154D01*
X46326547Y-44365794D01*
X45676306Y-44365226D01*
X45075345Y-44613538D01*
X44615154Y-45072927D01*
X44365794Y-45673453D01*
X44365226Y-46323694D01*
X28710000Y-46323694D01*
X28710000Y-30323694D01*
X44365226Y-30323694D01*
X44613538Y-30924655D01*
X45072927Y-31384846D01*
X45673453Y-31634206D01*
X46323694Y-31634774D01*
X46490889Y-31565691D01*
X49510000Y-34584802D01*
X49510000Y-35884405D01*
X49308033Y-36086019D01*
X49134818Y-36503168D01*
X49134503Y-36864737D01*
X48775150Y-36864424D01*
X48357699Y-37036911D01*
X48038033Y-37356019D01*
X47864818Y-37773168D01*
X47864424Y-38224850D01*
X48036911Y-38642301D01*
X48356019Y-38961967D01*
X48773168Y-39135182D01*
X49224850Y-39135576D01*
X49642301Y-38963089D01*
X49961967Y-38643981D01*
X50135182Y-38226832D01*
X50135497Y-37865263D01*
X50404737Y-37865497D01*
X50404424Y-38224850D01*
X50576911Y-38642301D01*
X50896019Y-38961967D01*
X51313168Y-39135182D01*
X51764850Y-39135576D01*
X52182301Y-38963089D01*
X52385745Y-38760000D01*
X64000000Y-38760000D01*
X64290839Y-38702148D01*
X64537401Y-38537401D01*
X74917401Y-28157401D01*
X75082148Y-27910839D01*
X75140000Y-27620000D01*
X75140000Y-27444648D01*
X75439670Y-27244415D01*
X75650000Y-26929634D01*
X75860330Y-27244415D01*
X76346511Y-27569271D01*
X76920000Y-27683345D01*
X77493489Y-27569271D01*
X77979670Y-27244415D01*
X78190000Y-26929634D01*
X78400330Y-27244415D01*
X78886511Y-27569271D01*
X79460000Y-27683345D01*
X80033489Y-27569271D01*
X80519670Y-27244415D01*
X80534500Y-27222220D01*
X80598073Y-27375698D01*
X80776701Y-27554327D01*
X81010090Y-27651000D01*
X81714250Y-27651000D01*
X81873000Y-27492250D01*
X81873000Y-26127000D01*
X82127000Y-26127000D01*
X82127000Y-27492250D01*
X82285750Y-27651000D01*
X82989910Y-27651000D01*
X83223299Y-27554327D01*
X83401927Y-27375698D01*
X83498600Y-27142309D01*
X83498600Y-26285750D01*
X83339850Y-26127000D01*
X82127000Y-26127000D01*
X81873000Y-26127000D01*
X81853000Y-26127000D01*
X81853000Y-25873000D01*
X81873000Y-25873000D01*
X81873000Y-25853000D01*
X82127000Y-25853000D01*
X82127000Y-25873000D01*
X83339850Y-25873000D01*
X83498600Y-25714250D01*
X83498600Y-24857691D01*
X83458135Y-24760000D01*
X97685198Y-24760000D01*
X106240000Y-33314802D01*
X106240000Y-43845198D01*
X101914127Y-48171071D01*
X101889915Y-48127000D01*
X100747000Y-48127000D01*
X100747000Y-48147000D01*
X100493000Y-48147000D01*
X100493000Y-48127000D01*
X99350085Y-48127000D01*
X99228096Y-48349039D01*
X99388959Y-48737423D01*
X99764866Y-49152389D01*
X99981703Y-49255014D01*
X99577189Y-49525302D01*
X99266120Y-49990849D01*
X99156887Y-50540000D01*
X99266120Y-51089151D01*
X99577189Y-51554698D01*
X99959275Y-51810000D01*
X99577189Y-52065302D01*
X99266120Y-52530849D01*
X99156887Y-53080000D01*
X99266120Y-53629151D01*
X99577189Y-54094698D01*
X99959275Y-54350000D01*
X99577189Y-54605302D01*
X99407005Y-54860000D01*
X97380000Y-54860000D01*
X97137414Y-54908254D01*
X97089160Y-54917852D01*
X96842599Y-55082599D01*
X92685198Y-59240000D01*
X77920000Y-59240000D01*
X77629161Y-59297852D01*
X77382599Y-59462599D01*
X75427579Y-61417619D01*
X74920000Y-61316655D01*
X74346511Y-61430729D01*
X73860330Y-61755585D01*
X73653539Y-62065069D01*
X73282036Y-61649268D01*
X72754791Y-61395291D01*
X72739026Y-61392642D01*
X72507000Y-61513783D01*
X72507000Y-62873000D01*
X72527000Y-62873000D01*
X72527000Y-63127000D01*
X72507000Y-63127000D01*
X72507000Y-64486217D01*
X72739026Y-64607358D01*
X72754791Y-64604709D01*
X73282036Y-64350732D01*
X73653539Y-63934931D01*
X73860330Y-64244415D01*
X74346511Y-64569271D01*
X74920000Y-64683345D01*
X75493489Y-64569271D01*
X75979670Y-64244415D01*
X76190000Y-63929634D01*
X76400330Y-64244415D01*
X76886511Y-64569271D01*
X77460000Y-64683345D01*
X77583898Y-64658700D01*
X79462599Y-66537401D01*
X79709160Y-66702148D01*
X79757414Y-66711746D01*
X80000000Y-66760000D01*
X103000000Y-66760000D01*
X103290839Y-66702148D01*
X103537401Y-66537401D01*
X103702148Y-66290839D01*
X103760000Y-66000000D01*
X103760000Y-55000000D01*
X103702148Y-54709161D01*
X103537401Y-54462599D01*
X102065312Y-52990510D01*
X101973880Y-52530849D01*
X101662811Y-52065302D01*
X101280725Y-51810000D01*
X101662811Y-51554698D01*
X101973880Y-51089151D01*
X102083113Y-50540000D01*
X102018688Y-50216114D01*
X107537401Y-44697401D01*
X107702148Y-44450839D01*
X107760000Y-44160000D01*
X107760000Y-33000000D01*
X107702148Y-32709161D01*
X107537401Y-32462599D01*
X100448107Y-25373305D01*
X118114674Y-25373305D01*
X118401043Y-26066372D01*
X118930839Y-26597093D01*
X119623405Y-26884672D01*
X120373305Y-26885326D01*
X121066372Y-26598957D01*
X121597093Y-26069161D01*
X121884672Y-25376595D01*
X121885326Y-24626695D01*
X121598957Y-23933628D01*
X121069161Y-23402907D01*
X120376595Y-23115328D01*
X119626695Y-23114674D01*
X118933628Y-23401043D01*
X118402907Y-23930839D01*
X118115328Y-24623405D01*
X118114674Y-25373305D01*
X100448107Y-25373305D01*
X98537401Y-23462599D01*
X98290839Y-23297852D01*
X98000000Y-23240000D01*
X64000000Y-23240000D01*
X63709160Y-23297852D01*
X63462599Y-23462599D01*
X57685198Y-29240000D01*
X57614496Y-29240000D01*
X57546462Y-29075345D01*
X57087073Y-28615154D01*
X56486547Y-28365794D01*
X55836306Y-28365226D01*
X55235345Y-28613538D01*
X54775154Y-29072927D01*
X54525794Y-29673453D01*
X54525226Y-30323694D01*
X54773538Y-30924655D01*
X55232927Y-31384846D01*
X55833453Y-31634206D01*
X56483694Y-31634774D01*
X57084655Y-31386462D01*
X57544846Y-30927073D01*
X57614221Y-30760000D01*
X58000000Y-30760000D01*
X58290839Y-30702148D01*
X58537401Y-30537401D01*
X64314802Y-24760000D01*
X70777380Y-24760000D01*
X70455474Y-25241766D01*
X70341400Y-25815255D01*
X70341400Y-26184745D01*
X70455474Y-26758234D01*
X70780330Y-27244415D01*
X71266511Y-27569271D01*
X71840000Y-27683345D01*
X72413489Y-27569271D01*
X72899670Y-27244415D01*
X73110000Y-26929634D01*
X73320330Y-27244415D01*
X73536406Y-27388792D01*
X63685198Y-37240000D01*
X52385595Y-37240000D01*
X52183981Y-37038033D01*
X51766832Y-36864818D01*
X51405263Y-36864503D01*
X51405576Y-36505150D01*
X51233089Y-36087699D01*
X51030000Y-35884255D01*
X51030000Y-34270000D01*
X50972148Y-33979161D01*
X50807401Y-33732599D01*
X47565885Y-30491083D01*
X47634206Y-30326547D01*
X47634774Y-29676306D01*
X47386462Y-29075345D01*
X46927073Y-28615154D01*
X46326547Y-28365794D01*
X45676306Y-28365226D01*
X45075345Y-28613538D01*
X44615154Y-29072927D01*
X44365794Y-29673453D01*
X44365226Y-30323694D01*
X28710000Y-30323694D01*
X28710000Y-25373305D01*
X29114674Y-25373305D01*
X29401043Y-26066372D01*
X29930839Y-26597093D01*
X30623405Y-26884672D01*
X31373305Y-26885326D01*
X32066372Y-26598957D01*
X32597093Y-26069161D01*
X32884672Y-25376595D01*
X32885326Y-24626695D01*
X32598957Y-23933628D01*
X32069161Y-23402907D01*
X31376595Y-23115328D01*
X30626695Y-23114674D01*
X29933628Y-23401043D01*
X29402907Y-23930839D01*
X29115328Y-24623405D01*
X29114674Y-25373305D01*
X28710000Y-25373305D01*
X28710000Y-22710000D01*
X122290000Y-22710000D01*
X122290000Y-76290000D01*
M02*
