M48
;DRILL file {KiCad 4.0.5+dfsg1-4} date Sun Jul  1 16:29:21 2018
;FORMAT={3:3/ absolute / metric / suppress leading zeros}
FMAT,2
METRIC,TZ
T1C0.600
T2C0.800
T3C1.001
T4C1.016
%
G90
G05
M71
T1
X49000Y-38000
X49000Y-53000
X49000Y-70000
X50270Y-36730
X50270Y-51730
X50270Y-68730
X51540Y-38000
X51540Y-53000
X51540Y-70000
T2
X93000Y-48000
X93000Y-50540
X93000Y-53080
X93000Y-55620
X100620Y-48000
X100620Y-50540
X100620Y-53080
X100620Y-55620
T3
X46000Y-30000
X46000Y-46000
X46000Y-63000
X56160Y-30000
X56160Y-46000
X56160Y-63000
X92000Y-40000
X102160Y-40000
T4
X71840Y-26000
X72380Y-63000
X74380Y-26000
X74920Y-63000
X76920Y-26000
X77460Y-63000
X79460Y-26000
X80000Y-63000
X82000Y-26000
T0
M30
